<svg width="1600" height="1600" version="1.1" xmlns="http://www.w3.org/2000/svg" desc="Created with imagetracer.js version 1.2.6" ><path fill="rgb(0,0,0)" stroke="rgb(0,0,0)" stroke-width="1" opacity="0" d="M 0 0 L 1600 0 L 1600 1600 L 0 1600 L 0 0 Z M 906 217 L 905 218 L 896 218 L 893 220 L 884 222 L 878 222 L 876 222 L 865 223 L 860 227 L 845 229 L 843 232 L 829 234 L 829 236 L 823 238 L 821 238 L 817 240 L 815 243 L 807 244 L 805 247 Q 803 250 798 249 L 793 254 Q 787 252 788 256 L 787 255 L 786 257 L 780 261 Q 777 260 778 263 Q 777 266 774 265 L 768 271 L 767 270 L 765 271 Q 762 272 764 274 Q 757 276 754 282 Q 751 281 752 284 L 747 287 L 746 291 L 744 292 L 731 306 Q 732 308 729 307 L 729 311 L 726 313 L 723 318 L 719 322 L 720 323 L 719 323 Q 720 325 717 327 Q 718 329 715 328 L 712 335 L 712 336 L 710 336 Q 711 339 709 338 L 709 340 L 707 346 L 703 348 L 702 352 L 703 354 L 700 358 Q 701 360 698 359 L 698 362 L 698 364 L 696 371 L 692 376 L 691 384 L 687 391 L 687 397 L 687 399 L 685 406 L 682 410 L 683 412 L 682 414 L 682 416 L 681 417 L 681 426 L 676 442 L 676 472 L 676 474 Q 674 475 675 481 L 675 485 L 675 495 L 676 496 L 675 497 L 675 627 L 509 627 L 508 626 L 503 627 L 500 631 L 500 835 L 501 837 L 505 838 L 670 838 L 671 837 L 675 838 L 676 843 L 675 846 L 676 848 L 675 849 L 675 1381 L 679 1383 L 883 1383 L 885 1383 L 887 1379 L 887 840 L 888 837 L 891 838 L 1057 838 L 1061 837 L 1060 836 L 1063 834 L 1062 832 L 1063 830 L 1064 812 L 1068 803 L 1067 801 L 1068 800 L 1068 780 L 1069 779 L 1068 777 L 1070 768 L 1072 765 L 1072 761 L 1072 759 L 1073 757 L 1074 740 L 1073 737 L 1078 720 L 1077 716 L 1079 711 L 1078 708 L 1080 687 L 1080 685 L 1082 681 Q 1081 676 1084 677 L 1083 675 L 1084 674 L 1085 645 L 1089 635 L 1088 630 L 1086 627 L 891 627 Q 889 630 887 626 L 887 489 L 888 486 L 888 484 L 892 476 L 891 474 Q 894 472 892 467 L 893 464 Q 892 460 895 461 L 898 456 L 897 454 L 900 450 Q 899 447 902 448 L 904 442 L 909 439 Q 908 436 911 437 L 912 434 L 916 432 Q 919 433 918 431 Q 919 427 925 428 L 931 423 L 937 423 L 946 418 L 949 418 L 951 418 L 956 417 L 958 418 L 967 416 L 969 417 L 980 416 L 981 415 L 1081 415 L 1082 416 L 1086 415 L 1089 416 L 1093 415 L 1095 410 L 1095 408 L 1095 397 L 1094 396 L 1095 395 L 1095 381 L 1095 379 L 1095 365 L 1094 364 L 1095 363 L 1095 349 L 1095 347 L 1095 333 L 1094 332 L 1095 331 L 1095 317 L 1095 315 L 1095 301 L 1094 300 L 1095 299 L 1095 285 L 1095 283 L 1095 269 L 1094 268 L 1095 267 L 1095 253 L 1095 251 L 1095 233 L 1094 228 Q 1093 223 1088 224 L 1086 224 Q 1084 221 1078 223 L 1076 223 L 1072 222 L 1068 223 L 1066 222 Q 1059 220 1058 223 L 1048 221 L 1046 222 L 1034 219 L 1032 219 L 1030 220 L 1024 218 L 1022 219 L 1012 217 L 1010 217 L 998 217 L 996 218 L 994 218 L 992 217 L 909 217 L 908 218 L 906 217 Z " /><path fill="rgb(47,47,47)" stroke="rgb(47,47,47)" stroke-width="1" opacity="0.7294117647058823" d="M 905.5 217 L 907.5 218 L 908.5 217 L 991.5 217 L 993.5 218 L 995.5 218 L 997.5 217 L 1009.5 217 L 1011.5 217 L 1021.5 219 L 1023.5 218 L 1027.5 219 L 1029.5 218 L 1032.5 220 L 1034.5 219 L 1038.5 221 L 1045.5 222 L 1047.5 221 L 1057.5 223 Q 1059.2 220.3 1065.5 222 L 1067.5 223 L 1071.5 222 L 1075.5 223 L 1077.5 223 Q 1083.7 221.2 1085.5 224 L 1087.5 224 Q 1093.3 223.3 1094 227.5 L 1095 232.5 L 1095 250.5 L 1095 252.5 L 1095 266.5 L 1094 267.5 L 1095 268.5 L 1095 282.5 L 1095 284.5 L 1095 298.5 L 1094 299.5 L 1095 300.5 L 1095 314.5 L 1095 316.5 L 1095 330.5 L 1094 331.5 L 1095 332.5 L 1095 346.5 L 1095 348.5 L 1095 362.5 L 1094 363.5 L 1095 364.5 L 1095 378.5 L 1095 380.5 L 1095 394.5 L 1094 395.5 L 1095 396.5 L 1095 407.5 L 1095 409.5 L 1093 415 L 1088.5 416 L 1085.5 415 L 1081.5 416 L 1080.5 415 L 980.5 415 L 979.5 416 L 968.5 417 L 966.5 416 L 957.5 418 L 955.5 417 L 950.5 418 L 948.5 418 L 945.5 418 L 936.5 423 L 930.5 423 L 924.5 428 Q 919.4 427.4 918 430.5 Q 918.8 433.1 915.5 432 L 912 434 L 910.5 437 Q 908.3 436.3 909 438.5 L 904 442 L 902 448 Q 899.3 446.9 900 449.5 L 897 453.5 L 898 455.5 L 894.5 461 Q 891.9 460.2 893 463.5 L 892 466.5 Q 893.5 472 891 473.5 L 892 475.5 L 888 483.5 L 888 485.5 L 887 488.5 L 887 625.5 Q 888.7 629.8 890.5 627 L 1085.5 627 L 1088 629.5 L 1089 634.5 L 1085 644.5 L 1084 673.5 L 1083 674.5 L 1084 677 Q 1080.7 675.7 1082 680.5 L 1080 684.5 L 1080 686.5 L 1078 707.5 L 1079 710.5 L 1077 715.5 L 1078 719.5 L 1073 736.5 L 1074 739.5 L 1073 756.5 L 1072 758.5 L 1072 760.5 L 1072 764.5 L 1070 767.5 L 1068 776.5 L 1069 778.5 L 1068 779.5 L 1068 799.5 L 1067 800.5 L 1068 802.5 L 1064 811.5 L 1063 829.5 L 1062 831.5 L 1063 834 L 1060 835.5 L 1060.5 837 L 1056.5 838 L 890.5 838 L 888 837 L 887 839.5 L 887 1378.5 L 884.5 1383 L 882.5 1383 L 678.5 1383 L 675 1380.5 L 675 848.5 L 676 847.5 L 675 845.5 L 676 842.5 L 675 838 L 670.5 837 L 669.5 838 L 504.5 838 L 501 837 L 500 834.5 L 500 630.5 L 502.5 627 L 507.5 626 L 508.5 627 L 675 627 L 675 496.5 L 676 495.5 L 675 494.5 L 675 484.5 L 675 480.5 Q 673.5 475 676 473.5 L 676 471.5 L 676 441.5 L 681 425.5 L 681 416.5 L 682 415.5 L 682 413.5 L 681 411.5 L 685 405.5 L 687 398.5 L 687 396.5 L 687 390.5 L 691 383.5 L 692 375.5 L 696 370.5 L 698 363.5 L 698 361.5 L 698 359 Q 700.7 360.1 700 357.5 L 703 353.5 L 702 351.5 L 703 348 L 707 345.5 L 709 339.5 L 708.5 338 Q 711.1 338.7 710 336 L 712 336 L 712 334.5 L 715 328 Q 717.7 329.1 717 326.5 Q 720.1 324.8 718.5 323 L 720 322.5 L 719 321.5 L 723 317.5 L 725.5 313 L 729 310.5 L 729 307 Q 731.7 308.1 731 305.5 L 743.5 292 L 746 290.5 L 747 287 L 752 283.5 Q 751.3 281.3 753.5 282 Q 756.9 275.8 764 273.5 Q 761.8 272.3 764.5 271 L 766.5 270 L 767.5 271 L 773.5 265 Q 777.5 265.5 778 262.5 Q 777.3 260.3 779.5 261 L 786 256.5 L 786.5 255 L 788 255.5 Q 787.1 252.1 792.5 254 L 797.5 249 Q 803 249.5 805 246.5 L 806.5 244 L 815 243 L 816.5 240 L 820.5 238 L 822.5 238 L 829 235.5 L 828.5 234 L 843 232 L 844.5 229 L 859.5 227 L 864.5 223 L 875.5 222 L 877.5 222 L 883.5 222 L 892.5 220 L 895.5 218 L 904.5 218 L 905.5 217 Z M 923 222 L 914 224 L 906 224 L 905 225 L 879 226 L 872 230 L 856 231 L 849 236 Q 840 235 837 238 Q 834 237 835 240 L 824 242 L 819 246 L 813 247 L 808 251 L 803 252 L 799 256 L 792 259 Q 789 258 790 261 L 777 269 Q 774 268 775 271 L 770 274 L 768 277 L 757 285 L 755 288 L 752 290 L 737 308 L 733 310 L 731 315 Q 732 317 730 316 L 722 327 L 721 331 L 717 335 L 716 340 L 711 345 L 711 349 L 706 355 Q 706 363 701 367 L 700 375 L 695 382 L 694 393 L 690 399 L 689 414 L 685 422 Q 686 426 684 428 L 684 443 L 680 458 L 680 467 L 679 468 L 679 628 L 678 630 L 676 631 L 508 631 L 504 634 L 505 635 L 505 648 L 505 650 L 505 664 L 506 665 L 505 666 L 505 680 L 505 682 L 505 696 L 506 697 L 505 698 L 505 712 L 505 714 L 505 728 L 506 729 L 505 730 L 505 744 L 505 746 L 505 760 L 506 761 L 505 762 L 505 776 L 505 778 L 505 792 L 506 793 L 505 794 L 505 808 L 505 810 L 505 824 L 506 825 L 505 830 L 508 831 L 675 831 L 677 832 L 679 837 L 679 1378 L 681 1379 L 877 1379 L 882 1378 L 882 839 L 884 834 L 888 831 L 1055 831 L 1057 830 L 1059 827 Q 1058 821 1060 820 L 1059 815 L 1060 814 L 1061 793 L 1065 781 L 1065 762 L 1065 760 Q 1068 758 1066 753 L 1066 751 L 1070 741 L 1071 711 L 1075 700 L 1076 673 L 1076 671 L 1081 653 Q 1079 640 1082 633 L 1081 631 L 887 631 L 885 630 L 882 627 L 882 503 L 883 502 L 883 492 L 884 491 L 884 474 L 888 468 L 890 458 Q 889 454 892 455 Q 896 453 895 447 L 898 445 L 901 440 Q 900 437 903 438 L 906 434 L 917 425 L 920 425 L 925 420 Q 933 420 937 415 L 951 414 L 960 410 L 971 410 L 972 409 L 1089 409 L 1091 407 L 1090 404 L 1090 236 L 1091 233 L 1086 230 L 1078 230 L 1073 228 L 1061 227 L 1060 226 L 1003 225 L 1002 224 L 967 223 L 966 222 L 923 222 Z " /><path fill="rgb(49,49,49)" stroke="rgb(49,49,49)" stroke-width="1" opacity="0.996078431372549" d="M 922.5 222 L 965.5 222 L 966.5 223 L 1001.5 224 L 1002.5 225 L 1059.5 226 L 1060.5 227 L 1072.5 228 L 1077.5 230 L 1085.5 230 L 1091 232.5 L 1090 235.5 L 1090 403.5 L 1091 406.5 L 1088.5 409 L 971.5 409 L 970.5 410 L 959.5 410 L 950.5 414 L 936.5 415 Q 933.2 420.2 924.5 420 L 919.5 425 L 916.5 425 L 906 433.5 L 902.5 438 Q 900.3 437.3 901 439.5 L 898 445 L 895 446.5 Q 895.6 453.1 891.5 455 Q 888.9 454.2 890 457.5 L 888 467.5 L 884 473.5 L 884 490.5 L 883 491.5 L 883 501.5 L 882 502.5 L 882 626.5 L 884.5 630 L 886.5 631 L 1080.5 631 L 1082 632.5 Q 1079.4 640.4 1081 652.5 L 1076 670.5 L 1076 672.5 L 1075.5 690 L 1075 652.5 L 1076 652.5 L 1077.5 656 L 1080 652.5 L 1080 635.5 L 1081 632 L 878.5 632 L 877 630.5 L 877.5 489 L 879 494.5 L 879 498.5 Q 878 502.3 881 501 L 883 490.5 L 883 466 L 887 466 L 887 464.5 L 888 463.5 L 888 452.5 L 889 451.5 L 888.5 450 L 891.5 452 L 893 450.5 L 893.5 441 L 896.5 442 L 900 436.5 L 899.5 435 L 902.5 436 Q 905.5 435.5 905 431.5 Q 904.3 429.3 900.5 430 L 899 430.5 Q 901.8 429.4 901 426 L 903 426 Q 901.5 429.7 904.5 429 L 908.5 430 Q 911.5 429.5 911 425.5 L 910.5 424 L 918.5 424 L 920 422.5 L 919 419.5 L 931 418 Q 933.3 412 926.5 414 L 926.5 413 L 928.5 412 L 929.5 413 L 948.5 413 L 951 412 L 949.5 409 L 946 408.5 L 1086.5 408 L 1089 406.5 L 1088 404 L 1085 403.5 L 1085 236.5 L 1089 233.5 L 1087.5 232 L 1052 231.5 L 1058.5 231 L 1061 228.5 L 1057.5 227 L 880.5 227 L 878 228.5 L 879 231 L 883 231.5 L 856.5 232 L 855 233.5 L 856 236.5 L 840.5 237 L 838 238 L 839.5 242 L 844 242.5 L 841.5 246 L 841 243 L 824.5 243 L 823 244.5 L 824.5 247 Q 826.8 246.3 826 248.5 L 824.5 248 L 813.5 248 L 812 249.5 L 813 252.5 L 803.5 253 L 801 255.5 L 802 258 Q 807.2 255.9 806 260.5 L 803 262 L 801.5 258 L 792 259 L 792 262.5 L 795 267 L 793 266.5 Q 795.3 265.3 792.5 264 L 788.5 263 L 784 266.5 L 785.5 269 L 777.5 269 L 776 270.5 L 777 275 L 771.5 274 L 769 277.5 L 770.5 280 L 766.5 279 Q 763.3 280.3 763.5 285 L 761.5 284 L 758 288.5 L 758.5 290 L 756.5 290 L 748 297.5 L 749 299.5 Q 744.3 299.3 743 302.5 L 744 305.5 L 742.5 306 L 740.5 305 Q 737.3 305.8 738 310.5 L 739.5 313 Q 740.8 310.8 742 313.5 L 738.5 316 L 738 311 Q 734.2 310 733 312.5 L 733 318 L 729 318 L 729 319.5 L 728 320.5 L 728 328.5 L 731 329.5 Q 731.8 331.8 729.5 331 Q 726.3 329.8 727 326 L 722 328.5 L 723 338 Q 720.3 339.1 721 336.5 L 722 334 L 718 335.5 L 716.5 345 L 713.5 344 L 712 345.5 L 712 355.5 L 712 357.5 L 711.5 359 L 711 355 L 708.5 354 L 707 355.5 L 707 370 Q 704.3 371.1 705 368.5 L 706 366 L 702 367 L 701 370.5 L 700.5 382 L 697.5 381 L 696 382.5 L 696 398 Q 692.2 397 691 399.5 L 690.5 428 L 688.5 422 L 686 423.5 L 685 427.5 L 685 461.5 L 684 462.5 L 685 466.5 L 683 465.5 L 684 463.5 L 681 462 L 681 468.5 L 680 469.5 L 680 630.5 L 678.5 632 L 508.5 632 L 507 633.5 L 509 636.5 L 509 825.5 L 508 829 L 511.5 830 L 512.5 829 L 677.5 829 L 680 830 L 680 1377.5 L 682.5 1378 L 685 1373 L 872.5 1373 L 875 1374 L 875.5 1377 L 878 1372.5 L 877 1369.5 L 877 830.5 L 878.5 829 L 1049.5 829 L 1052.5 830 L 1058 823.5 L 1059.5 815 L 1060 819.5 Q 1057.5 821 1059 826.5 L 1056.5 830 L 1054.5 831 L 887.5 831 L 884 833.5 L 882 838.5 L 882 1378 L 876.5 1379 L 680.5 1379 L 679 1377.5 L 679 836.5 L 676.5 832 L 674.5 831 L 507.5 831 L 505 830 L 506 824.5 L 505 823.5 L 505 809.5 L 505 807.5 L 505 793.5 L 506 792.5 L 505 791.5 L 505 777.5 L 505 775.5 L 505 761.5 L 506 760.5 L 505 759.5 L 505 745.5 L 505 743.5 L 505 729.5 L 506 728.5 L 505 727.5 L 505 713.5 L 505 711.5 L 505 697.5 L 506 696.5 L 505 695.5 L 505 681.5 L 505 679.5 L 505 665.5 L 506 664.5 L 505 663.5 L 505 649.5 L 505 647.5 L 505 634.5 L 504 633.5 L 507.5 631 L 675.5 631 L 678 630 L 679 627.5 L 679 467.5 L 680 466.5 L 680 457.5 L 684 442.5 L 684 427.5 Q 686.2 426.3 685 421.5 L 689 413.5 L 690 398.5 L 694 392.5 L 695 381.5 L 700 374.5 L 701 366.5 Q 706.2 363.2 706 354.5 L 711 348.5 L 711 344.5 L 716 339.5 L 717 334.5 L 721 330.5 L 722 326.5 L 729.5 316 Q 731.8 316.8 731 314.5 L 733 310 L 737 307.5 L 751.5 290 L 755 287.5 L 756.5 285 L 768 276.5 L 769.5 274 L 775 270.5 Q 774.3 268.3 776.5 269 L 790 260.5 Q 789.3 258.3 791.5 259 L 798.5 256 L 802.5 252 L 807.5 251 L 812.5 247 L 818.5 246 L 823.5 242 L 835 240 Q 833.9 237.3 836.5 238 Q 840.2 234.7 848.5 236 L 855.5 231 L 871.5 230 L 878.5 226 L 904.5 225 L 905.5 224 L 913.5 224 L 922.5 222 Z " /><path fill="rgb(49,49,49)" stroke="rgb(49,49,49)" stroke-width="1" opacity="0.996078431372549" d="M 1048.5 231 L 1051 231.5 L 1048.5 232 L 1048.5 231 Z " /><path fill="rgb(49,49,49)" stroke="rgb(49,49,49)" stroke-width="1" opacity="0.996078431372549" d="M 884.5 232 Q 887.5 233.5 884.5 235 Q 882.3 235.8 883 233.5 L 884.5 232 Z " /><path fill="rgb(49,49,49)" stroke="rgb(49,49,49)" stroke-width="1" opacity="0.996078431372549" d="M 889.5 232 L 891 235 L 888 233.5 L 889.5 232 Z " /><path fill="rgb(49,49,49)" stroke="rgb(49,49,49)" stroke-width="1" opacity="0.996078431372549" d="M 862 238 Q 865 237 864 240 Q 861 241 862 238 Z " /><path fill="rgb(49,49,49)" stroke="rgb(49,49,49)" stroke-width="1" opacity="0.996078431372549" d="M 846 243 Q 849.3 241.9 848 246 Q 844.7 247.1 846 243 Z " /><path fill="rgb(49,49,49)" stroke="rgb(49,49,49)" stroke-width="1" opacity="0.996078431372549" d="M 830 248 Q 833.3 246.9 832 251 Q 828.7 252.1 830 248 Z " /><path fill="rgb(49,49,49)" stroke="rgb(49,49,49)" stroke-width="1" opacity="0.996078431372549" d="M 814 254 Q 817 253 816 256 Q 813 257 814 254 Z " /><path fill="rgb(49,49,49)" stroke="rgb(49,49,49)" stroke-width="1" opacity="0.996078431372549" d="M 819 254 Q 823.1 252.7 822 256 Q 817.9 257.3 819 254 Z " /><path fill="rgb(49,49,49)" stroke="rgb(49,49,49)" stroke-width="1" opacity="0.996078431372549" d="M 809.5 259 Q 811.8 258.3 811 260.5 Q 809.5 263.5 808 260.5 L 809.5 259 Z " /><path fill="rgb(49,49,49)" stroke="rgb(49,49,49)" stroke-width="1" opacity="0.996078431372549" d="M 798 264 Q 801.3 262.9 800 267 Q 796.7 268.1 798 264 Z " /><path fill="rgb(49,49,49)" stroke="rgb(49,49,49)" stroke-width="1" opacity="0.996078431372549" d="M 787 270 Q 791.1 268.7 790 272 Q 785.9 273.3 787 270 Z " /><path fill="rgb(49,49,49)" stroke="rgb(49,49,49)" stroke-width="1" opacity="0.996078431372549" d="M 779.5 273 L 780 274.5 L 777.5 278 L 778 276.5 L 779.5 273 Z " /><path fill="rgb(49,49,49)" stroke="rgb(49,49,49)" stroke-width="1" opacity="0.996078431372549" d="M 782 275 Q 785.3 273.9 784 278 Q 780.7 279.1 782 275 Z " /><path fill="rgb(49,49,49)" stroke="rgb(49,49,49)" stroke-width="1" opacity="0.996078431372549" d="M 772.5 280 Q 775.5 281.5 772.5 283 Q 770.3 283.8 771 281.5 L 772.5 280 Z " /><path fill="rgb(49,49,49)" stroke="rgb(49,49,49)" stroke-width="1" opacity="0.996078431372549" d="M 777.5 280 L 779 283 L 776 281.5 L 777.5 280 Z " /><path fill="rgb(49,49,49)" stroke="rgb(49,49,49)" stroke-width="1" opacity="0.996078431372549" d="M 766 286 Q 769 285 768 288 Q 765 289 766 286 Z " /><path fill="rgb(49,49,49)" stroke="rgb(49,49,49)" stroke-width="1" opacity="0.996078431372549" d="M 761.5 291 Q 763.8 290.3 763 292.5 Q 761.5 295.5 760 292.5 L 761.5 291 Z " /><path fill="rgb(49,49,49)" stroke="rgb(49,49,49)" stroke-width="1" opacity="0.996078431372549" d="M 756.5 296 Q 759.5 297.5 756.5 299 Q 754.3 299.8 755 297.5 L 756.5 296 Z " /><path fill="rgb(49,49,49)" stroke="rgb(49,49,49)" stroke-width="1" opacity="0.996078431372549" d="M 750 302 Q 753 301 752 304 Q 749 305 750 302 Z " /><path fill="rgb(49,49,49)" stroke="rgb(49,49,49)" stroke-width="1" opacity="0.996078431372549" d="M 745.5 307 Q 747.8 306.3 747 308.5 Q 745.5 311.5 744 308.5 L 745.5 307 Z " /><path fill="rgb(49,49,49)" stroke="rgb(49,49,49)" stroke-width="1" opacity="0.996078431372549" d="M 739 318 Q 743.1 316.7 742 320 Q 737.9 321.3 739 318 Z " /><path fill="rgb(49,49,49)" stroke="rgb(49,49,49)" stroke-width="1" opacity="0.996078431372549" d="M 734 323 Q 737.3 321.9 736 326 Q 732.7 327.1 734 323 Z " /><path fill="rgb(49,49,49)" stroke="rgb(49,49,49)" stroke-width="1" opacity="0.996078431372549" d="M 728 334 Q 732.1 332.7 731 336 Q 726.9 337.3 728 334 Z " /><path fill="rgb(49,49,49)" stroke="rgb(49,49,49)" stroke-width="1" opacity="0.996078431372549" d="M 723 339 Q 726.8 337.5 726 340.5 L 723 342 L 723 339 Z " /><path fill="rgb(49,49,49)" stroke="rgb(49,49,49)" stroke-width="1" opacity="0.996078431372549" d="M 718 350 Q 721 349 720 352 Q 717 353 718 350 Z " /><path fill="rgb(49,49,49)" stroke="rgb(49,49,49)" stroke-width="1" opacity="0.996078431372549" d="M 713.5 360 L 715 363 L 712 361.5 L 713.5 360 Z " /><path fill="rgb(49,49,49)" stroke="rgb(49,49,49)" stroke-width="1" opacity="0.996078431372549" d="M 707 371 Q 710.8 369.5 710 372.5 L 707 374 L 707 371 Z " /><path fill="rgb(49,49,49)" stroke="rgb(49,49,49)" stroke-width="1" opacity="0.996078431372549" d="M 702 387 Q 705.3 385.9 704 390 Q 700.7 391.1 702 387 Z " /><path fill="rgb(49,49,49)" stroke="rgb(49,49,49)" stroke-width="1" opacity="0.996078431372549" d="M 695.5 399 L 696 401.5 L 695 401.5 L 695.5 399 Z " /><path fill="rgb(49,49,49)" stroke="rgb(49,49,49)" stroke-width="1" opacity="0.996078431372549" d="M 697.5 403 Q 699.8 402.3 699 404.5 Q 697.5 407.5 696 404.5 L 697.5 403 Z " /><path fill="rgb(49,49,49)" stroke="rgb(49,49,49)" stroke-width="1" opacity="0.996078431372549" d="M 938 405 Q 942.1 403.7 941 407 Q 936.9 408.3 938 405 Z " /><path fill="rgb(49,49,49)" stroke="rgb(49,49,49)" stroke-width="1" opacity="0.996078431372549" d="M 944.5 405 Q 947.1 404.3 946 407 L 943 406.5 L 944.5 405 Z " /><path fill="rgb(49,49,49)" stroke="rgb(49,49,49)" stroke-width="1" opacity="0.996078431372549" d="M 923.5 410 L 925 413 L 922 411.5 L 923.5 410 Z " /><path fill="rgb(49,49,49)" stroke="rgb(49,49,49)" stroke-width="1" opacity="0.996078431372549" d="M 918.5 415 L 917.5 417 L 918.5 415 Z " /><path fill="rgb(49,49,49)" stroke="rgb(49,49,49)" stroke-width="1" opacity="0.996078431372549" d="M 912 416 Q 915 415 914 418 Q 911 419 912 416 Z " /><path fill="rgb(49,49,49)" stroke="rgb(49,49,49)" stroke-width="1" opacity="0.996078431372549" d="M 906 421 Q 910.1 419.7 909 423 Q 904.9 424.3 906 421 Z " /><path fill="rgb(49,49,49)" stroke="rgb(49,49,49)" stroke-width="1" opacity="0.996078431372549" d="M 896 426 Q 899.3 424.9 898 429 Q 894.7 430.1 896 426 Z " /><path fill="rgb(49,49,49)" stroke="rgb(49,49,49)" stroke-width="1" opacity="0.996078431372549" d="M 691 430 Q 695.1 428.7 694 432 Q 689.9 433.3 691 430 Z " /><path fill="rgb(49,49,49)" stroke="rgb(49,49,49)" stroke-width="1" opacity="0.996078431372549" d="M 896 432 Q 899 431 898 434 Q 895 435 896 432 Z " /><path fill="rgb(49,49,49)" stroke="rgb(49,49,49)" stroke-width="1" opacity="0.996078431372549" d="M 890 437 Q 894.1 435.7 893 439 Q 888.9 440.3 890 437 Z " /><path fill="rgb(49,49,49)" stroke="rgb(49,49,49)" stroke-width="1" opacity="0.996078431372549" d="M 885 442 Q 888.3 440.9 887 445 Q 883.7 446.1 885 442 Z " /><path fill="rgb(49,49,49)" stroke="rgb(49,49,49)" stroke-width="1" opacity="0.996078431372549" d="M 886.5 447 L 887 450 Q 884.3 451.1 885 448.5 L 886.5 447 Z " /><path fill="rgb(49,49,49)" stroke="rgb(49,49,49)" stroke-width="1" opacity="0.996078431372549" d="M 880 458 Q 883.3 456.9 882 461 Q 878.7 462.1 880 458 Z " /><path fill="rgb(49,49,49)" stroke="rgb(49,49,49)" stroke-width="1" opacity="0.996078431372549" d="M 686 478 Q 689 477 688 480 Q 685 481 686 478 Z " /><path fill="rgb(49,49,49)" stroke="rgb(49,49,49)" stroke-width="1" opacity="0.996078431372549" d="M 874 485 Q 878.1 483.7 877 487 Q 872.9 488.3 874 485 Z " /><path fill="rgb(49,49,49)" stroke="rgb(49,49,49)" stroke-width="1" opacity="0.996078431372549" d="M 681.5 632 L 683 635 L 680 633.5 L 681.5 632 Z " /><path fill="rgb(49,49,49)" stroke="rgb(49,49,49)" stroke-width="1" opacity="0.996078431372549" d="M 874.5 633 L 877 633.5 L 874.5 634 L 874.5 633 Z " /><path fill="rgb(49,49,49)" stroke="rgb(49,49,49)" stroke-width="1" opacity="0.996078431372549" d="M 1072.5 645 Q 1075.1 644.3 1074 647 L 1071 646.5 L 1072.5 645 Z " /><path fill="rgb(49,49,49)" stroke="rgb(49,49,49)" stroke-width="1" opacity="0.996078431372549" d="M 1066 688 Q 1070.1 686.7 1069 690 Q 1064.9 691.3 1066 688 Z " /><path fill="rgb(49,49,49)" stroke="rgb(49,49,49)" stroke-width="1" opacity="0.996078431372549" d="M 1069.5 691 L 1071 694.5 L 1070 698 L 1072.5 699 L 1074.5 693 L 1075 699.5 L 1071 710.5 L 1070 740.5 L 1066 750.5 L 1066 752.5 Q 1067.5 758 1065 759.5 L 1065 761.5 L 1065 780.5 L 1060 798.5 L 1059.5 814 L 1059 780.5 L 1060 780.5 Q 1059.2 783.5 1063 782 L 1064 779.5 L 1064 740.5 L 1065 739.5 L 1064.5 738 L 1066.5 741 L 1069 737.5 L 1069.5 691 Z " /><path fill="rgb(49,49,49)" stroke="rgb(49,49,49)" stroke-width="1" opacity="0.996078431372549" d="M 1061 730 Q 1064.3 728.9 1063 733 Q 1059.7 734.1 1061 730 Z " /><path fill="rgb(49,49,49)" stroke="rgb(49,49,49)" stroke-width="1" opacity="0.996078431372549" d="M 1064.5 734 L 1065 736.5 L 1064 736.5 L 1064.5 734 Z " /><path fill="rgb(49,49,49)" stroke="rgb(49,49,49)" stroke-width="1" opacity="0.996078431372549" d="M 1056.5 773 Q 1059.1 772.3 1058 775 L 1055 774.5 L 1056.5 773 Z " /><path fill="rgb(49,49,49)" stroke="rgb(49,49,49)" stroke-width="1" opacity="0.996078431372549" d="M 1051.5 810 L 1053 813 L 1050 811.5 L 1051.5 810 Z " /><path fill="rgb(49,49,49)" stroke="rgb(49,49,49)" stroke-width="1" opacity="0.996078431372549" d="M 1053.5 814 L 1055 825 L 1053 825 L 1053 818 Q 1048.9 819.3 1050 816 Q 1053.8 817.3 1053.5 814 Z " /><path fill="rgb(49,49,49)" stroke="rgb(49,49,49)" stroke-width="1" opacity="0.996078431372549" d="M 680.5 826 L 684 826.5 L 681.5 828 L 680.5 826 Z " /><path fill="rgb(49,49,49)" stroke="rgb(49,49,49)" stroke-width="1" opacity="0.996078431372549" d="M 875.5 826 L 877 829 L 874 827.5 L 875.5 826 Z " /><path fill="rgb(49,49,49)" stroke="rgb(49,49,49)" stroke-width="1" opacity="1" d="M 880.5 227 L 1057.5 227 L 1061 228.5 L 1058.5 231 L 1052 231.5 L 1087.5 232 L 1089 233.5 L 1085 236.5 L 1085 403.5 L 1088 404 L 1088 405.5 L 1088.5 407 L 1086.5 408 L 946 408.5 L 951 410.5 Q 951.8 412.8 949.5 412 L 948.5 413 L 929.5 413 L 927.5 413 L 926 413.5 L 931 414 Q 933.1 419.2 928.5 418 L 927.5 419 L 919 419.5 L 920 422.5 L 918.5 424 L 910 424.5 L 911 427.5 Q 910.3 430.8 905.5 430 L 903 429 Q 904.3 424.9 901 426 L 900 429.5 L 905 431.5 Q 905.5 435.5 902.5 436 L 899 437.5 Q 899.5 441.5 896.5 442 L 893.5 441 L 893 450.5 L 891.5 452 L 889.5 451 L 888 452.5 Q 889.4 462.1 887 466 L 883 466.5 L 883 490.5 L 881 501 Q 878 502.3 879 498.5 L 879 494.5 L 877.5 489 L 877 630.5 L 878.5 632 L 1081 632 L 1080 635.5 L 1080 652.5 L 1077.5 656 L 1075.5 652 L 1075 692.5 L 1072.5 699 L 1070 698 L 1071 694.5 L 1069.5 691 L 1069 737.5 L 1066.5 741 L 1065.5 739 L 1064 740.5 L 1064 779.5 L 1063 782 Q 1059.3 783.5 1060 780.5 L 1059 780.5 L 1059 818.5 L 1058 823.5 L 1052.5 830 L 1049.5 829 L 878.5 829 L 877 830.5 L 877 1369.5 L 878 1372.5 L 875.5 1377 L 875 1374 L 872.5 1373 L 685 1373 L 682.5 1378 L 680 1377.5 L 680 830.5 L 678.5 830 L 677.5 829 L 512.5 829 L 510.5 830 L 508 829 L 509 825.5 L 509 636.5 L 507 633.5 L 508.5 632 L 678.5 632 L 680 630.5 L 680 469.5 L 681 468.5 L 681 462 L 683.5 463 L 685 461.5 L 685 427.5 L 687.5 422 L 690 423.5 L 689 426.5 L 690.5 428 L 691 399.5 L 692.5 398 L 696 397.5 L 696 382.5 L 699.5 381 L 701 381.5 Q 699.9 371.9 702 367 L 706 366 L 705 370 L 707 369.5 L 707 355.5 Q 708.3 352.8 709.5 355 Q 712.5 354.1 711 358.5 L 712 358.5 L 713 356.5 L 712 355.5 L 712 345.5 L 715.5 344 L 717 344.5 Q 715.9 336.9 719.5 334 Q 722.8 332.9 722 335.5 L 721 338 Q 724.7 339.4 723 333.5 L 722 328.5 L 727 326 L 727.5 329 Q 727 321.4 729 318 Q 735.4 320.3 733 312.5 Q 734.2 310 738 311 Q 737 306.3 740.5 305 L 743.5 306 L 743 304.5 Q 742.5 300.5 745.5 300 L 749 299.5 L 748 297.5 L 758 288.5 L 761.5 284 L 763.5 285 Q 763.3 280.3 766.5 279 L 770 278.5 L 770 276.5 L 771.5 274 L 777 275 L 776 270.5 L 777.5 269 L 786 268.5 Q 781.8 266.3 786.5 264 L 789.5 263 L 792.5 264 L 792 262.5 Q 790.2 256.4 797.5 259 L 802 258 L 801 255.5 L 803.5 253 L 813 252.5 L 812 249.5 L 813.5 248 L 824.5 248 L 826 248.5 Q 826.8 246.3 824.5 247 L 823 244.5 L 824.5 243 L 841 243 L 841.5 246 L 844 242.5 Q 839.4 243.1 838 240.5 Q 836.9 237.2 839.5 238 L 840.5 237 L 856 236.5 L 855 233.5 L 856.5 232 L 883 231.5 L 879 231 L 878 228.5 L 880.5 227 Z M 1049 231 L 1049 232 L 1051 232 L 1049 231 Z M 885 232 L 883 234 Q 882 236 885 235 Q 888 234 885 232 Z M 890 232 L 888 234 L 891 235 L 890 232 Z M 862 238 Q 861 241 864 240 Q 865 237 862 238 Z M 846 243 Q 845 247 848 246 Q 849 242 846 243 Z M 830 248 Q 829 252 832 251 Q 833 247 830 248 Z M 814 254 Q 813 257 816 256 Q 817 253 814 254 Z M 819 254 Q 818 257 822 256 Q 823 253 819 254 Z M 803 258 L 803 262 L 806 261 Q 807 256 803 258 Z M 810 259 L 808 261 Q 810 264 811 261 Q 812 258 810 259 Z M 798 264 Q 797 268 800 267 Q 801 263 798 264 Z M 795 265 L 793 267 L 795 267 L 795 265 Z M 787 270 Q 786 273 790 272 Q 791 269 787 270 Z M 782 275 Q 781 279 784 278 Q 785 274 782 275 Z M 773 280 L 771 282 Q 770 284 773 283 Q 776 282 773 280 Z M 778 280 L 776 282 L 779 283 L 778 280 Z M 766 286 Q 765 289 768 288 Q 769 285 766 286 Z M 762 291 L 760 293 Q 762 296 763 293 Q 764 290 762 291 Z M 757 296 L 755 298 Q 754 300 757 299 Q 760 298 757 296 Z M 750 302 Q 749 305 752 304 Q 753 301 750 302 Z M 746 307 L 744 309 Q 746 312 747 309 Q 748 306 746 307 Z M 739 311 L 739 316 L 742 314 Q 741 311 740 313 L 739 311 Z M 739 318 Q 738 321 742 320 Q 743 317 739 318 Z M 734 323 Q 733 327 736 326 Q 737 322 734 323 Z M 730 328 L 728 330 L 731 331 L 730 328 Z M 728 334 Q 727 337 731 336 Q 732 333 728 334 Z M 723 339 L 723 342 L 726 341 Q 727 338 723 339 Z M 718 350 Q 717 353 720 352 Q 721 349 718 350 Z M 714 360 L 712 362 L 715 363 L 714 360 Z M 707 371 L 707 374 L 710 373 Q 711 370 707 371 Z M 702 387 Q 701 391 704 390 Q 705 386 702 387 Z M 696 399 L 695 402 L 696 402 L 696 399 Z M 698 403 L 696 405 Q 698 408 699 405 Q 700 402 698 403 Z M 938 405 Q 937 408 941 407 Q 942 404 938 405 Z M 945 405 L 943 407 L 946 407 Q 947 404 945 405 Z M 924 410 L 922 412 L 925 413 L 924 410 Z M 912 416 Q 911 419 914 418 Q 915 415 912 416 Z M 906 421 Q 905 424 909 423 Q 910 420 906 421 Z M 896 426 Q 895 430 898 429 Q 899 425 896 426 Z M 691 430 Q 690 433 694 432 Q 695 429 691 430 Z M 896 432 Q 895 435 898 434 Q 899 431 896 432 Z M 890 437 Q 889 440 893 439 Q 894 436 890 437 Z M 885 442 Q 884 446 887 445 Q 888 441 885 442 Z M 887 447 L 885 449 Q 884 451 887 450 L 887 447 Z M 880 458 Q 879 462 882 461 Q 883 457 880 458 Z M 685 463 L 683 466 L 685 467 L 685 463 Z M 686 478 Q 685 481 688 480 Q 689 477 686 478 Z M 874 485 Q 873 488 877 487 Q 878 484 874 485 Z M 682 632 L 680 634 L 683 635 L 682 632 Z M 875 633 L 875 634 L 877 634 L 875 633 Z M 1073 645 L 1071 647 L 1074 647 Q 1075 644 1073 645 Z M 1066 688 Q 1065 691 1069 690 Q 1070 687 1066 688 Z M 1061 730 Q 1060 734 1063 733 Q 1064 729 1061 730 Z M 1065 734 L 1064 737 L 1065 737 L 1065 734 Z M 1057 773 L 1055 775 L 1058 775 Q 1059 772 1057 773 Z M 1052 810 L 1050 812 L 1053 813 L 1052 810 Z M 1054 814 Q 1054 817 1050 816 Q 1049 819 1053 818 L 1053 825 L 1055 825 L 1054 814 Z M 681 826 L 682 828 L 684 827 L 681 826 Z M 876 826 L 874 828 L 877 829 L 876 826 Z " /></svg>