<svg version="1.1" id="Layer_1" xmlns="http://www.w3.org/2000/svg" xmlns:xlink="http://www.w3.org/1999/xlink" x="0px" y="0px"
	 width="100%" viewBox="0 0 600 600" enable-background="new 0 0 600 600" xml:space="preserve">
<path fill="#FFFFFF" opacity="1.000000" stroke="none" 
	d="
M391.000000,601.000000 
	C260.666656,601.000000 130.833328,601.000000 1.000000,601.000000 
	C1.000000,401.000000 1.000000,201.000000 1.000000,1.000000 
	C201.000000,1.000000 401.000000,1.000000 601.000000,1.000000 
	C601.000000,201.000000 601.000000,401.000000 601.000000,601.000000 
	C531.166687,601.000000 461.333344,601.000000 391.000000,601.000000 
M246.786621,485.679077 
	C273.704010,493.726044 300.621368,501.773010 327.978271,509.951355 
	C327.978271,507.462067 327.978271,505.477448 327.978271,503.492828 
	C327.978302,396.527985 327.963989,289.563141 328.019684,182.598328 
	C328.022522,177.122421 328.251923,171.591217 329.055054,166.186676 
	C329.864624,160.738922 332.762177,159.350571 337.991638,160.706268 
	C345.817810,162.735184 351.042999,167.630203 352.766693,175.389389 
	C354.090729,181.349548 354.781952,187.570831 354.806335,193.679764 
	C354.975189,235.998520 354.936188,278.318390 354.820435,320.637482 
	C354.810974,324.095245 355.566345,326.224121 359.063873,327.316376 
	C365.091370,329.198761 370.914246,331.826874 377.020264,333.352264 
	C410.167206,341.632812 436.367249,327.299469 447.495575,295.042084 
	C448.092285,293.312378 448.670197,291.566437 449.099121,289.789978 
	C455.938293,261.465302 454.728943,233.246002 447.266693,205.290863 
	C441.798004,184.803970 430.474335,167.708786 413.068481,155.676453 
	C401.097626,147.401199 388.404083,139.312286 374.857910,134.347916 
	C343.479889,122.848564 311.494019,112.953400 279.539429,103.105934 
	C264.663879,98.521729 249.287827,95.561485 233.441818,91.695091 
	C233.441818,94.528442 233.441818,96.484337 233.441818,98.440224 
	C233.441818,221.899643 233.441833,345.359070 233.441833,468.818481 
	C233.441833,481.725311 233.441833,481.725311 246.786621,485.679077 
M358.549011,413.012146 
	C381.820648,404.423584 405.078552,395.797638 428.369202,387.260895 
	C441.672028,382.384979 455.451813,380.045898 469.578583,381.222961 
	C475.966248,381.755188 482.465027,383.041473 488.494995,385.170563 
	C494.118286,387.156097 494.681824,391.861542 489.876770,395.485199 
	C485.697693,398.636749 480.872864,401.225403 475.959625,403.064026 
	C433.860229,418.818146 391.698120,434.406097 349.480591,449.840912 
	C345.449860,451.314575 343.787445,453.000549 343.928009,457.514526 
	C344.295959,469.332703 344.052063,481.169983 344.052032,492.999634 
	C344.052032,496.219879 344.052032,499.440155 344.052032,503.082794 
	C345.629791,502.584656 346.415436,502.372314 347.175781,502.091461 
	C408.393494,479.477539 469.622803,456.894867 530.813049,434.206879 
	C542.294495,429.949829 552.811768,423.904236 562.121887,415.857330 
	C573.567993,405.964172 574.405518,393.224548 563.019287,383.258698 
	C556.757324,377.777771 549.259583,372.927368 541.478760,370.126740 
	C525.549133,364.392914 509.294312,359.063904 492.744263,355.646362 
	C444.025269,345.585938 395.753143,347.162231 348.468567,364.092499 
	C345.072632,365.308441 343.845276,366.809631 343.960663,370.440247 
	C344.241058,379.261932 344.052032,388.098541 344.052032,396.929138 
	C344.052063,403.846832 344.052032,410.764496 344.052032,418.314362 
	C349.122772,416.448822 353.464966,414.851318 358.549011,413.012146 
M208.816147,459.231415 
	C209.973663,459.090027 211.127731,458.873535 212.289291,458.820465 
	C216.998108,458.605408 219.519272,456.931152 218.919968,451.469910 
	C218.341888,446.202118 218.794830,440.821136 218.794830,435.489899 
	C218.794830,427.733215 218.794830,419.976501 218.794830,411.666077 
	C216.342056,412.360016 214.603317,412.792267 212.902802,413.342590 
	C200.233246,417.442688 187.567780,421.555573 174.907806,425.685181 
	C161.294815,430.125641 147.367432,432.233826 133.062027,430.966492 
	C128.437958,430.556824 123.684601,430.024445 119.347664,428.518951 
	C116.520844,427.537689 112.736992,424.977753 112.327385,422.614502 
	C111.934807,420.349518 114.815224,416.695831 117.206757,414.962646 
	C120.772575,412.378357 125.037773,410.563477 129.238510,409.082428 
	C157.654510,399.063782 186.111359,389.159271 214.617554,379.400574 
	C217.870270,378.287048 218.934525,376.832825 218.881622,373.405121 
	C218.670853,359.747070 218.801697,346.083801 218.784164,332.422485 
	C218.782532,331.148041 218.626465,329.873810 218.516830,328.217987 
	C216.927856,328.677673 215.665802,328.984955 214.442520,329.405090 
	C171.618607,344.112000 128.783951,358.787872 85.985077,373.567383 
	C70.137314,379.039978 55.498753,386.898712 41.923428,396.731537 
	C28.193153,406.676636 26.957794,420.343536 39.801929,431.486237 
	C45.955154,436.824402 53.398682,441.373505 61.028629,444.197205 
	C108.635063,461.815491 157.639587,467.276276 208.816147,459.231415 
z"/>
<path fill="#0271D1" opacity="1.000000" stroke="none" 
	d="
M246.411133,485.538635 
	C233.441833,481.725311 233.441833,481.725311 233.441833,468.818481 
	C233.441833,345.359070 233.441818,221.899643 233.441818,98.440224 
	C233.441818,96.484337 233.441818,94.528442 233.441818,91.695091 
	C249.287827,95.561485 264.663879,98.521729 279.539429,103.105934 
	C311.494019,112.953400 343.479889,122.848564 374.857910,134.347916 
	C388.404083,139.312286 401.097626,147.401199 413.068481,155.676453 
	C430.474335,167.708786 441.798004,184.803970 447.266693,205.290863 
	C454.728943,233.246002 455.938293,261.465302 449.099121,289.789978 
	C448.670197,291.566437 448.092285,293.312378 447.495575,295.042084 
	C436.367249,327.299469 410.167206,341.632812 377.020264,333.352264 
	C370.914246,331.826874 365.091370,329.198761 359.063873,327.316376 
	C355.566345,326.224121 354.810974,324.095245 354.820435,320.637482 
	C354.936188,278.318390 354.975189,235.998520 354.806335,193.679764 
	C354.781952,187.570831 354.090729,181.349548 352.766693,175.389389 
	C351.042999,167.630203 345.817810,162.735184 337.991638,160.706268 
	C332.762177,159.350571 329.864624,160.738922 329.055054,166.186676 
	C328.251923,171.591217 328.022522,177.122421 328.019684,182.598328 
	C327.963989,289.563141 327.978302,396.527985 327.978271,503.492828 
	C327.978271,505.477448 327.978271,507.462067 327.978271,509.951355 
	C300.621368,501.773010 273.704010,493.726044 246.411133,485.538635 
z"/>
<path fill="#0271D1" opacity="1.000000" stroke="none" 
	d="
M358.178101,413.132996 
	C353.464966,414.851318 349.122772,416.448822 344.052032,418.314362 
	C344.052032,410.764496 344.052063,403.846832 344.052032,396.929138 
	C344.052032,388.098541 344.241058,379.261932 343.960663,370.440247 
	C343.845276,366.809631 345.072632,365.308441 348.468567,364.092499 
	C395.753143,347.162231 444.025269,345.585938 492.744263,355.646362 
	C509.294312,359.063904 525.549133,364.392914 541.478760,370.126740 
	C549.259583,372.927368 556.757324,377.777771 563.019287,383.258698 
	C574.405518,393.224548 573.567993,405.964172 562.121887,415.857330 
	C552.811768,423.904236 542.294495,429.949829 530.813049,434.206879 
	C469.622803,456.894867 408.393494,479.477539 347.175781,502.091461 
	C346.415436,502.372314 345.629791,502.584656 344.052032,503.082794 
	C344.052032,499.440155 344.052032,496.219879 344.052032,492.999634 
	C344.052063,481.169983 344.295959,469.332703 343.928009,457.514526 
	C343.787445,453.000549 345.449860,451.314575 349.480591,449.840912 
	C391.698120,434.406097 433.860229,418.818146 475.959625,403.064026 
	C480.872864,401.225403 485.697693,398.636749 489.876770,395.485199 
	C494.681824,391.861542 494.118286,387.156097 488.494995,385.170563 
	C482.465027,383.041473 475.966248,381.755188 469.578583,381.222961 
	C455.451813,380.045898 441.672028,382.384979 428.369202,387.260895 
	C405.078552,395.797638 381.820648,404.423584 358.178101,413.132996 
z"/>
<path fill="#0371D1" opacity="1.000000" stroke="none" 
	d="
M208.384674,459.311249 
	C157.639587,467.276276 108.635063,461.815491 61.028629,444.197205 
	C53.398682,441.373505 45.955154,436.824402 39.801929,431.486237 
	C26.957794,420.343536 28.193153,406.676636 41.923428,396.731537 
	C55.498753,386.898712 70.137314,379.039978 85.985077,373.567383 
	C128.783951,358.787872 171.618607,344.112000 214.442520,329.405090 
	C215.665802,328.984955 216.927856,328.677673 218.516830,328.217987 
	C218.626465,329.873810 218.782532,331.148041 218.784164,332.422485 
	C218.801697,346.083801 218.670853,359.747070 218.881622,373.405121 
	C218.934525,376.832825 217.870270,378.287048 214.617554,379.400574 
	C186.111359,389.159271 157.654510,399.063782 129.238510,409.082428 
	C125.037773,410.563477 120.772575,412.378357 117.206757,414.962646 
	C114.815224,416.695831 111.934807,420.349518 112.327385,422.614502 
	C112.736992,424.977753 116.520844,427.537689 119.347664,428.518951 
	C123.684601,430.024445 128.437958,430.556824 133.062027,430.966492 
	C147.367432,432.233826 161.294815,430.125641 174.907806,425.685181 
	C187.567780,421.555573 200.233246,417.442688 212.902802,413.342590 
	C214.603317,412.792267 216.342056,412.360016 218.794830,411.666077 
	C218.794830,419.976501 218.794830,427.733215 218.794830,435.489899 
	C218.794830,440.821136 218.341888,446.202118 218.919968,451.469910 
	C219.519272,456.931152 216.998108,458.605408 212.289291,458.820465 
	C211.127731,458.873535 209.973663,459.090027 208.384674,459.311249 
z"/>
</svg>