<svg version="1.1" id="Layer_1" xmlns="http://www.w3.org/2000/svg" xmlns:xlink="http://www.w3.org/1999/xlink" x="0px" y="0px"
	 width="100%" viewBox="0 0 512 512" enable-background="new 0 0 512 512" xml:space="preserve">
<path fill="#000000" opacity="1.000000" stroke="none" 
	d="
M359.000000,513.000000 
	C239.362411,513.000000 120.224808,513.000000 1.043608,513.000000 
	C1.043608,342.404053 1.043608,171.808090 1.043608,1.106062 
	C171.554260,1.106062 342.108612,1.106062 512.831482,1.106062 
	C512.831482,171.666534 512.831482,342.333252 512.831482,513.000000 
	C461.808014,513.000000 410.654022,513.000000 359.000000,513.000000 
M223.500916,349.999481 
	C252.121582,350.250854 277.403870,340.760254 299.775818,323.328033 
	C303.469086,320.450226 305.451172,320.818207 308.459045,323.867493 
	C323.671539,339.289459 339.047180,354.550415 354.365509,369.867950 
	C368.741211,384.242828 383.096649,398.638123 397.528442,412.956451 
	C398.744293,414.162750 401.295837,415.982208 401.824158,415.596313 
	C404.729401,413.474335 407.665039,411.049896 409.549652,408.070892 
	C410.166626,407.095673 408.080811,403.730988 406.523224,402.161499 
	C382.929871,378.387787 359.218445,354.731201 335.535004,331.046906 
	C329.643585,325.155304 323.829742,319.183136 317.826324,313.407959 
	C315.251556,310.931061 314.388885,308.961121 317.207397,305.926849 
	C319.905212,303.022522 322.122345,299.632904 324.306549,296.296722 
	C338.810425,274.143616 345.221252,249.900986 344.110748,223.367050 
	C342.862366,193.538193 331.900116,167.762268 311.633026,146.433731 
	C287.546326,121.085495 257.608154,108.555550 222.242615,108.903046 
	C184.420563,109.274673 153.508759,124.316086 129.914566,153.091049 
	C105.713066,182.606689 97.949135,217.172211 105.459625,254.525436 
	C116.560295,309.734253 166.376907,349.974884 223.500916,349.999481 
z"/>
<path fill="#231F20" opacity="1.000000" stroke="none" 
	d="
M223.008118,349.999512 
	C166.376907,349.974884 116.560295,309.734253 105.459625,254.525436 
	C97.949135,217.172211 105.713066,182.606689 129.914566,153.091049 
	C153.508759,124.316086 184.420563,109.274673 222.242615,108.903046 
	C257.608154,108.555550 287.546326,121.085495 311.633026,146.433731 
	C331.900116,167.762268 342.862366,193.538193 344.110748,223.367050 
	C345.221252,249.900986 338.810425,274.143616 324.306549,296.296722 
	C322.122345,299.632904 319.905212,303.022522 317.207397,305.926849 
	C314.388885,308.961121 315.251556,310.931061 317.826324,313.407959 
	C323.829742,319.183136 329.643585,325.155304 335.535004,331.046906 
	C359.218445,354.731201 382.929871,378.387787 406.523224,402.161499 
	C408.080811,403.730988 410.166626,407.095673 409.549652,408.070892 
	C407.665039,411.049896 404.729401,413.474335 401.824158,415.596313 
	C401.295837,415.982208 398.744293,414.162750 397.528442,412.956451 
	C383.096649,398.638123 368.741211,384.242828 354.365509,369.867950 
	C339.047180,354.550415 323.671539,339.289459 308.459045,323.867493 
	C305.451172,320.818207 303.469086,320.450226 299.775818,323.328033 
	C277.403870,340.760254 252.121582,350.250854 223.008118,349.999512 
M154.509064,148.994308 
	C150.193863,153.395203 145.402252,157.425415 141.642136,162.258194 
	C120.073647,189.979660 112.881836,221.008865 121.113419,255.347977 
	C132.213013,301.651398 174.348877,335.001801 222.167343,335.841278 
	C255.067368,336.418854 282.940887,324.221130 304.544189,298.967133 
	C323.853943,276.394318 332.645477,250.322006 330.123688,220.544846 
	C327.570648,190.398575 314.494385,165.766434 291.143188,146.757553 
	C251.154221,114.204796 193.451492,115.068733 154.509064,148.994308 
z"/>
<path fill="#000000" opacity="1.000000" stroke="none" 
	d="
M154.763962,148.746521 
	C193.451492,115.068733 251.154221,114.204796 291.143188,146.757553 
	C314.494385,165.766434 327.570648,190.398575 330.123688,220.544846 
	C332.645477,250.322006 323.853943,276.394318 304.544189,298.967133 
	C282.940887,324.221130 255.067368,336.418854 222.167343,335.841278 
	C174.348877,335.001801 132.213013,301.651398 121.113419,255.347977 
	C112.881836,221.008865 120.073647,189.979660 141.642136,162.258194 
	C145.402252,157.425415 150.193863,153.395203 154.763962,148.746521 
z"/>
</svg>